<svg width="24" height="24" xmlns="http://www.w3.org/2000/svg">

 <g>
  <title>background</title>
  <rect fill="none" id="canvas_background" height="402" width="582" y="-1" x="-1"/>
 </g>
 <g>
  <title>Layer 1</title>
  <path fill="#ffffff" id="svg_1" d="m12,10c1.1,0 2,-0.9 2,-2l0,-4c0,-1.1 -0.9,-2 -2,-2s-2,0.9 -2,2l0,4c0,1.1 0.9,2 2,2z"/>
  <path fill="#ffffff" id="svg_2" d="m19.1,4.9l0,0c-0.3,-0.3 -0.6,-0.4 -1.1,-0.4c-0.8,0 -1.5,0.7 -1.5,1.5c0,0.4 0.2,0.8 0.4,1.1l0,0c0,0 0,0 0,0c0,0 0,0 0,0c1.3,1.3 2,3 2,4.9c0,3.9 -3.1,7 -7,7s-7,-3.1 -7,-7c0,-1.9 0.8,-3.7 2.1,-4.9l0,0c0.3,-0.3 0.5,-0.7 0.5,-1.1c0,-0.8 -0.7,-1.5 -1.5,-1.5c-0.4,0 -0.8,0.2 -1.1,0.4l0,0c-1.8,1.8 -2.9,4.3 -2.9,7.1c0,5.5 4.5,10 10,10s10,-4.5 10,-10c0,-2.8 -1.1,-5.3 -2.9,-7.1z"/>
 </g>
</svg>